<?xml version="1.0" encoding="utf-8"?>
<!-- Generator: Adobe Illustrator 15.1.0, SVG Export Plug-In . SVG Version: 6.00 Build 0)  -->
<!DOCTYPE svg PUBLIC "-//W3C//DTD SVG 1.1//EN" "http://www.w3.org/Graphics/SVG/1.1/DTD/svg11.dtd">
<svg version="1.1" id="Layer_1" xmlns="http://www.w3.org/2000/svg" xmlns:xlink="http://www.w3.org/1999/xlink" x="0px" y="0px"
	 width="72px" height="72px" viewBox="0 0 72 72" enable-background="new 0 0 72 72" xml:space="preserve">
<path fill="#010101" d="M46.367,40.271c-2.341,0-4.24,2.626-4.24,5.867s1.899,5.868,4.24,5.868c2.34,0,4.237-2.627,4.237-5.868
	S48.707,40.271,46.367,40.271z M61.126,24.999c0.483-1.191,0.508-7.958-2.067-14.434c0,0-5.906,0.647-14.843,6.779
	c-1.874-0.517-5.046-0.775-8.216-0.775c-3.171,0-6.341,0.258-8.216,0.775c-8.938-6.132-14.843-6.779-14.843-6.779
	c-2.574,6.476-2.551,13.243-2.068,14.434C7.848,28.284,6,32.229,6,37.619c0,23.435,19.44,23.81,24.348,23.81
	c1.11,0,3.318,0.003,5.652,0.006c2.333-0.003,4.542-0.006,5.651-0.006C46.56,61.429,66,61.054,66,37.619
	C66,32.229,64.151,28.284,61.126,24.999z M36.092,58.549h-0.184c-12.3,0-21.877-1.469-21.877-13.422c0-2.862,1.01-5.521,3.409-7.727
	c4.005-3.675,10.779-1.729,18.468-1.729c0.029,0,0.061,0,0.092-0.002c0.031,0.001,0.062,0.002,0.092,0.002
	c7.688,0,14.464-1.946,18.467,1.729c2.4,2.206,3.41,4.864,3.41,7.727C57.969,57.08,48.392,58.549,36.092,58.549z M25.633,40.271
	c-2.34,0-4.238,2.626-4.238,5.867s1.898,5.868,4.238,5.868c2.342,0,4.24-2.627,4.24-5.868S27.975,40.271,25.633,40.271z"/>
</svg>
