<?xml version="1.0" encoding="utf-8"?>
<!-- Generator: Adobe Illustrator 15.1.0, SVG Export Plug-In . SVG Version: 6.00 Build 0)  -->
<!DOCTYPE svg PUBLIC "-//W3C//DTD SVG 1.1//EN" "http://www.w3.org/Graphics/SVG/1.1/DTD/svg11.dtd">
<svg version="1.1" id="Layer_1" xmlns="http://www.w3.org/2000/svg" xmlns:xlink="http://www.w3.org/1999/xlink" x="0px" y="0px"
	 width="72px" height="72px" viewBox="0 0 72 72" enable-background="new 0 0 72 72" xml:space="preserve">
<path d="M61.08,15.596c-5.832-5.353-15.286-5.353-21.119,0L36,19.23l-3.961-3.634c-5.832-5.353-15.286-5.353-21.118,0
	c-6.561,6.021-6.561,15.784,0,21.805L36,60.419l25.08-23.018C67.641,31.38,67.641,21.617,61.08,15.596z M57.366,33.822L36,53.753
	L14.637,33.822c-2.155-1.978-2.989-4.578-2.989-7.324c0-2.745,0.481-4.997,2.636-6.974c1.904-1.749,4.46-2.71,7.196-2.71
	c2.738,0,5.294,1.66,7.198,3.408l7.323,6.372l7.322-6.372c1.903-1.748,4.46-3.408,7.198-3.408c2.737,0,5.294,0.962,7.197,2.71
	c2.155,1.977,2.635,4.229,2.636,6.974C60.354,29.244,59.521,31.844,57.366,33.822z"/>
</svg>
