<?xml version="1.0" encoding="utf-8"?>
<!-- Generator: Adobe Illustrator 15.1.0, SVG Export Plug-In . SVG Version: 6.00 Build 0)  -->
<!DOCTYPE svg PUBLIC "-//W3C//DTD SVG 1.1//EN" "http://www.w3.org/Graphics/SVG/1.1/DTD/svg11.dtd">
<svg version="1.1" id="Layer_1" xmlns="http://www.w3.org/2000/svg" xmlns:xlink="http://www.w3.org/1999/xlink" x="0px" y="0px"
	 width="72px" height="72px" viewBox="0 0 72 72" enable-background="new 0 0 72 72" xml:space="preserve">
<g>
	<path d="M28.344,45.277c-1.509,1.354-4.408,4.066-9.232,4.066c-5.691,0-11.172-4.989-11.172-12.969
		c0-10.226,6.553-13.524,11.584-13.524c7.258,0,8.847,4.379,10.825,10.449l2.642,8.314c2.637,8.063,7.586,14.547,21.854,14.547
		C65.073,56.16,72,53.003,72,44.689c0-6.735-3.796-10.227-10.886-11.89l-5.279-1.164c-3.629-0.832-4.701-2.329-4.701-4.823
		c0-2.827,2.227-4.489,5.856-4.489c3.958,0,6.103,1.498,6.433,5.071l8.247-0.997c-0.66-7.482-5.773-10.557-14.184-10.557
		c-7.424,0-14.68,2.826-14.68,11.887c0,5.653,2.719,9.227,9.562,10.892l5.61,1.33c4.206,0.997,5.607,2.742,5.607,5.153
		c0,3.076-2.968,4.324-8.577,4.324c-8.329,0-12.513-4.408-14.493-10.477l-2.723-8.312c-3.462-10.807-7.549-14.798-18.517-14.798
		C9.495,15.841,0,23.572,0,36.707C0,49.344,9.117,56.16,18.698,56.16c6.931,0,10.451-2.436,12.169-3.685L28.344,45.277z"/>
</g>
</svg>
