<?xml version="1.0" encoding="utf-8"?>
<!-- Generator: Adobe Illustrator 15.1.0, SVG Export Plug-In . SVG Version: 6.00 Build 0)  -->
<!DOCTYPE svg PUBLIC "-//W3C//DTD SVG 1.1//EN" "http://www.w3.org/Graphics/SVG/1.1/DTD/svg11.dtd">
<svg version="1.1" id="Layer_1" xmlns="http://www.w3.org/2000/svg" xmlns:xlink="http://www.w3.org/1999/xlink" x="0px" y="0px"
	 width="72px" height="72px" viewBox="0 0 72 72" enable-background="new 0 0 72 72" xml:space="preserve">
<path fill="#010101" d="M34.582,27.59c-4.431-7.874-9.165-14.292-9.514-14.762c-7.145,3.376-12.477,9.958-14.141,17.89
	C11.601,30.73,22.278,30.858,34.582,27.59z M37.772,36.196c0.336-0.106,0.672-0.208,1.011-0.305
	c-0.644-1.457-1.346-2.915-2.079-4.354C23.512,35.486,10.851,35.2,10.4,35.188c-0.008,0.27-0.021,0.538-0.021,0.812
	c0,6.588,2.489,12.592,6.573,17.131c-0.008-0.009-0.018-0.022-0.018-0.022S23.948,40.668,37.772,36.196z M20.253,56.197l0.004-0.011
	c-0.189-0.149-0.394-0.285-0.579-0.44C20.018,56.019,20.253,56.197,20.253,56.197z M29.862,11.125
	c-0.022,0.005-0.046,0.011-0.067,0.016c0.04-0.01,0.063-0.013,0.063-0.013L29.862,11.125z M52.921,16.772
	C48.409,12.797,42.487,10.38,36,10.38c-2.082,0-4.101,0.255-6.037,0.722c0.391,0.517,5.198,6.906,9.578,14.947
	C49.201,22.427,52.854,16.877,52.921,16.772z M36,66C19.432,66,6,52.567,6,36C6,19.432,19.432,6,36,6c16.569,0,30,13.432,30,30
	C66,52.567,52.569,66,36,66z M40.358,40.192c-15.037,5.239-20.001,15.778-20.102,15.994C24.604,59.581,30.059,61.62,36,61.62
	c3.549,0,6.928-0.723,10.001-2.027c-0.379-2.246-1.869-10.093-5.473-19.457C40.472,40.155,40.416,40.172,40.358,40.192z
	 M41.512,29.866c0.599,1.222,1.17,2.463,1.703,3.716c0.189,0.442,0.373,0.884,0.553,1.324c8.849-1.113,17.56,0.776,17.844,0.837
	c-0.06-6.081-2.231-11.654-5.826-16.017C55.733,19.802,51.623,25.736,41.512,29.866z M45.329,38.95
	c3.365,9.245,4.729,16.767,4.986,18.299c5.753-3.884,9.84-10.042,10.979-17.185C60.785,39.899,53.612,37.624,45.329,38.95z"/>
</svg>
