<?xml version="1.0" encoding="utf-8"?>
<!-- Generator: Adobe Illustrator 15.1.0, SVG Export Plug-In . SVG Version: 6.00 Build 0)  -->
<!DOCTYPE svg PUBLIC "-//W3C//DTD SVG 1.1//EN" "http://www.w3.org/Graphics/SVG/1.1/DTD/svg11.dtd">
<svg version="1.1" id="Layer_1" xmlns="http://www.w3.org/2000/svg" xmlns:xlink="http://www.w3.org/1999/xlink" x="0px" y="0px"
	 width="72px" height="72px" viewBox="0 0 72 72" enable-background="new 0 0 72 72" xml:space="preserve">
<g>
	<path d="M36,16.399C13.038,16.399,1,33.317,1,36c0,2.682,12.038,19.601,35,19.601c22.961,0,35-16.919,35-19.601
		C71,33.317,58.961,16.399,36,16.399z M36,51.077c-8.591,0-15.556-6.749-15.556-15.077S27.409,20.922,36,20.922
		S51.557,27.672,51.557,36S44.591,51.077,36,51.077z M36,36c-1.425-1.565,2.322-7.539,0-7.539c-4.296,0-7.778,3.376-7.778,7.539
		c0,4.161,3.482,7.539,7.778,7.539c4.295,0,7.778-3.378,7.778-7.539C43.778,34.086,37.212,37.328,36,36z"/>
</g>
</svg>
