<?xml version="1.0" encoding="utf-8"?>
<!-- Generator: Adobe Illustrator 15.1.0, SVG Export Plug-In . SVG Version: 6.00 Build 0)  -->
<!DOCTYPE svg PUBLIC "-//W3C//DTD SVG 1.1//EN" "http://www.w3.org/Graphics/SVG/1.1/DTD/svg11.dtd">
<svg version="1.1" id="Layer_1" xmlns="http://www.w3.org/2000/svg" xmlns:xlink="http://www.w3.org/1999/xlink" x="0px" y="0px"
	 width="72px" height="72px" viewBox="0 0 72 72" enable-background="new 0 0 72 72" xml:space="preserve">
<path fill="#010101" d="M52.932,36c0,9.352-7.582,16.932-16.932,16.932c-9.352,0-16.931-7.58-16.931-16.932
	c0-1.114,0.111-2.202,0.316-3.255H8V55.25C8,60.083,11.914,64,16.75,64h38.5c4.831,0,8.75-3.917,8.75-8.75V32.745H52.613
	C52.82,33.798,52.932,34.886,52.932,36z M55.25,8h-38.5C11.914,8,8,11.918,8,16.75v9.482h14.174
	C25.241,21.9,30.288,19.069,36,19.069c5.71,0,10.757,2.831,13.823,7.163H64V16.75C64,11.918,60.081,8,55.25,8z M59.527,18.809
	c0,0.86-0.702,1.563-1.562,1.563h-4.689c-0.857,0-1.562-0.703-1.562-1.563v-4.688c0-0.86,0.704-1.563,1.562-1.563h4.689
	c0.86,0,1.562,0.703,1.562,1.563V18.809z M46.419,36c0-5.755-4.665-10.419-10.419-10.419c-5.755,0-10.419,4.664-10.419,10.419
	c0,5.754,4.664,10.419,10.419,10.419C41.754,46.419,46.419,41.754,46.419,36z"/>
</svg>
