<?xml version="1.0" encoding="utf-8"?>
<!-- Generator: Adobe Illustrator 15.1.0, SVG Export Plug-In . SVG Version: 6.00 Build 0)  -->
<!DOCTYPE svg PUBLIC "-//W3C//DTD SVG 1.1//EN" "http://www.w3.org/Graphics/SVG/1.1/DTD/svg11.dtd">
<svg version="1.1" id="Layer_1" xmlns="http://www.w3.org/2000/svg" xmlns:xlink="http://www.w3.org/1999/xlink" x="0px" y="0px"
	 width="72px" height="72px" viewBox="0 0 72 72" enable-background="new 0 0 72 72" xml:space="preserve">
<path fill="#010101" d="M66,17.391c-2.209,0.979-4.58,1.641-7.07,1.939c2.542-1.523,4.493-3.936,5.413-6.811
	c-2.379,1.41-5.014,2.435-7.817,2.987c-2.245-2.393-5.445-3.887-8.985-3.887c-6.798,0-12.31,5.511-12.31,12.309
	c0,0.965,0.108,1.904,0.319,2.805c-10.23-0.513-19.303-5.414-25.373-12.861c-1.06,1.818-1.667,3.933-1.667,6.188
	c0,4.271,2.173,8.038,5.476,10.246c-2.017-0.063-3.916-0.616-5.575-1.539c-0.001,0.051-0.001,0.102-0.001,0.154
	c0,5.965,4.244,10.94,9.875,12.071c-1.032,0.281-2.12,0.432-3.243,0.432c-0.792,0-1.563-0.076-2.316-0.221
	c1.567,4.891,6.114,8.449,11.5,8.549c-4.214,3.303-9.521,5.27-15.288,5.27c-0.994,0-1.973-0.059-2.936-0.174
	c5.447,3.494,11.916,5.533,18.87,5.533c22.641,0,35.024-18.758,35.024-35.026c0-0.532-0.012-1.063-0.036-1.593
	C62.263,22.028,64.35,19.86,66,17.391z"/>
</svg>
