<?xml version="1.0" encoding="utf-8"?>
<!-- Generator: Adobe Illustrator 15.1.0, SVG Export Plug-In . SVG Version: 6.00 Build 0)  -->
<!DOCTYPE svg PUBLIC "-//W3C//DTD SVG 1.1//EN" "http://www.w3.org/Graphics/SVG/1.1/DTD/svg11.dtd">
<svg version="1.1" id="Layer_1" xmlns="http://www.w3.org/2000/svg" xmlns:xlink="http://www.w3.org/1999/xlink" x="0px" y="0px"
	 width="72px" height="72px" viewBox="0 0 72 72" enable-background="new 0 0 72 72" xml:space="preserve">
<path fill="#010101" d="M54.14,36c0,10.02-8.123,18.14-18.14,18.14c-10.02,0-18.14-8.12-18.14-18.14
	c0-1.194,0.119-2.359,0.338-3.488H6v24.113C6,61.803,10.194,66,15.375,66h41.25C61.801,66,66,61.803,66,56.625V32.512H53.8
	C54.021,33.641,54.14,34.806,54.14,36z M56.625,6h-41.25C10.194,6,6,10.198,6,15.375v10.159h15.187
	C24.472,20.893,29.88,17.86,36,17.86c6.118,0,11.526,3.033,14.811,7.674H66V15.375C66,10.198,61.801,6,56.625,6z M61.208,17.581
	c0,0.922-0.753,1.675-1.674,1.675H54.51c-0.919,0-1.674-0.753-1.674-1.675v-5.022c0-0.922,0.755-1.675,1.674-1.675h5.024
	c0.921,0,1.674,0.753,1.674,1.675V17.581z M47.163,36c0-6.166-4.998-11.163-11.163-11.163c-6.166,0-11.163,4.997-11.163,11.163
	c0,6.165,4.997,11.163,11.163,11.163C42.165,47.163,47.163,42.165,47.163,36z"/>
</svg>
