<?xml version="1.0" encoding="utf-8"?>
<!-- Generator: Adobe Illustrator 15.1.0, SVG Export Plug-In . SVG Version: 6.00 Build 0)  -->
<!DOCTYPE svg PUBLIC "-//W3C//DTD SVG 1.1//EN" "http://www.w3.org/Graphics/SVG/1.1/DTD/svg11.dtd">
<svg version="1.1" id="Layer_1" xmlns="http://www.w3.org/2000/svg" xmlns:xlink="http://www.w3.org/1999/xlink" x="0px" y="0px"
	 width="72px" height="72px" viewBox="0 0 72 72" enable-background="new 0 0 72 72" xml:space="preserve">
<g>
	<path fill="#010101" d="M6,6v9.35c27.973,0,50.649,22.677,50.649,50.65H66C66,32.863,39.137,6,6,6z M6,24.702v9.35
		c17.644,0,31.947,14.304,31.947,31.948h9.351C47.298,43.191,28.809,24.702,6,24.702z M14.96,48.078c-4.947,0-8.96,4.013-8.96,8.961
		C6,61.988,10.013,66,14.96,66c4.95,0,8.962-4.012,8.962-8.961C23.922,52.091,19.91,48.078,14.96,48.078z"/>
</g>
</svg>
